<svg width="135" height="40" viewBox="0 0 135 40" fill="none" xmlns="http://www.w3.org/2000/svg">
<rect width="134.71" height="40" rx="8" fill="white"/>
<path d="M33.4456 9.2561H16.2578V15.9162H33.4456V9.2561Z" fill="url(#paint0_linear_126_489)"/>
<path d="M9.17773 28.5677V15.9293L16.2574 9.24292V28.5546H9.17773V28.5677Z" fill="url(#paint1_linear_126_489)"/>
<path d="M40.5375 28.5677V15.9293L33.4316 9.24292V28.5546H40.5375V28.5677Z" fill="url(#paint2_linear_126_489)"/>
<path d="M47.6436 15.9163H59.9936V28.5547H56.4407V19.207H51.1965V28.5547H47.6436V15.9163Z" fill="black"/>
<path d="M72.0946 15.9162H75.6475V28.5547H72.0946V26.7324C71.6226 27.4141 70.9933 27.9385 70.2722 28.3187C69.5511 28.6858 68.7383 28.8825 67.9123 28.8694C64.425 28.8694 61.8291 26.1555 61.8291 22.2486C61.8291 18.3417 64.3725 15.5623 67.991 15.5623C69.6167 15.5623 71.2293 16.2702 72.0946 17.5682V15.9162ZM71.9766 22.2617C71.9766 21.829 71.8979 21.3964 71.7406 20.99C71.5833 20.5836 71.3342 20.2165 71.0326 19.9149C70.7311 19.6134 70.3509 19.3512 69.9576 19.1939C69.5511 19.0103 69.1185 18.9316 68.6859 18.9316C67.8206 18.9579 66.9946 19.3381 66.3915 19.9543C65.7885 20.5836 65.4607 21.4226 65.4607 22.2879C65.4607 23.1532 65.8016 23.9923 66.4178 24.6085C67.0339 25.2378 67.8599 25.5917 68.7252 25.6049C69.5905 25.5917 70.4295 25.2378 71.0457 24.6085C71.6357 23.9661 71.9766 23.127 71.9766 22.2617Z" fill="black"/>
<path d="M86.28 28.5677L83.4743 23.9659H81.5209V28.5677H78.0859V15.9292H81.5209V20.9505H83.3563L86.2669 15.9423H90.1738L86.398 22.1698L90.6195 28.5546H86.28V28.5677Z" fill="black"/>
<path d="M103.573 23.3892H94.0675C94.4346 24.8707 95.6539 25.7491 97.3058 25.7491C97.9351 25.7491 98.5513 25.618 99.1282 25.3557C99.705 25.0935 100.203 24.7264 100.623 24.2545L102.668 26.339C101.475 27.9385 99.2855 28.8825 97.0698 28.8825C93.1629 28.8825 90.3311 26.1424 90.3311 22.2617C90.3311 18.1581 93.4514 15.6016 97.0436 15.6016C100.636 15.6016 103.625 18.1712 103.625 22.0388C103.651 22.3928 103.625 22.8385 103.573 23.3892ZM100.085 21.0948C99.9673 19.6134 98.7611 18.6563 97.1616 18.6563C95.6932 18.6563 94.4477 19.3774 94.0806 21.0948H100.085Z" fill="black"/>
<path d="M115.845 15.9163V19.2332H111.925V28.581H108.359V19.2332H104.438V15.9294H115.845V15.9163Z" fill="black"/>
<path d="M123.829 15.8898L123.108 14.6574L122.4 15.8898H121.535L122.649 14.0675L121.521 12.3762H122.426L123.147 13.5037L123.829 12.3762H124.681L123.554 14.1199L124.681 15.8898H123.829Z" fill="black"/>
<path d="M127.473 14.6838C127.473 15.4573 126.896 15.9424 126.123 15.9424C125.965 15.9555 125.795 15.9424 125.637 15.8768C125.48 15.8244 125.336 15.7326 125.218 15.6146C125.087 15.4966 124.995 15.3786 124.93 15.2082C124.864 15.064 124.838 14.9066 124.812 14.7231H125.533C125.546 14.8673 125.624 15.0115 125.755 15.1164C125.873 15.2082 126.031 15.2606 126.175 15.2475C126.254 15.2475 126.332 15.2475 126.398 15.2213C126.463 15.1951 126.529 15.1557 126.595 15.0902C126.647 15.0377 126.686 14.9591 126.713 14.8935C126.726 14.8149 126.739 14.7493 126.726 14.6707C126.726 14.592 126.713 14.5133 126.673 14.4478C126.647 14.3691 126.595 14.3036 126.529 14.2511C126.463 14.1987 126.398 14.1593 126.319 14.1331C126.241 14.1069 126.162 14.1069 126.083 14.1069C125.965 14.1069 125.86 14.12 125.742 14.1725C125.651 14.2249 125.546 14.3036 125.48 14.3953H124.825L125.061 12.3501H127.368L127.289 13.045H125.637L125.572 13.7267C125.572 13.7267 125.755 13.5169 126.267 13.5169C126.424 13.5038 126.568 13.53 126.739 13.5825C126.883 13.6349 127.014 13.7267 127.132 13.8447C127.25 13.9627 127.329 14.0807 127.394 14.238C127.46 14.3691 127.486 14.5264 127.473 14.6838Z" fill="black"/>
<path d="M124.904 11.9174C124.51 10.3966 123.278 9.32153 120.708 9.32153H117.614L118.047 12.1796C118.375 14.7493 119.358 15.5621 121.075 15.8768C121.089 15.8768 121.089 15.8768 121.102 15.8768C121.115 15.8768 121.115 15.8768 121.115 15.8636C121.115 15.8505 121.128 15.8505 121.128 15.8505C121.128 15.8505 121.128 15.8374 121.128 15.8243C121.128 15.8112 121.128 15.8112 121.115 15.7981C121.115 15.785 121.102 15.785 121.089 15.785C119.909 15.2868 119.777 13.6742 119.528 12.0354L119.332 10.7244H121.102C122.727 10.7244 123.986 10.6981 124.799 11.9698C124.799 11.983 124.812 11.983 124.812 11.983C124.825 11.983 124.825 11.983 124.838 11.983H124.851C124.851 11.983 124.864 11.983 124.864 11.9698L124.877 11.9567C124.904 11.9305 124.917 11.9305 124.904 11.9174Z" fill="#5FAE2D"/>
<defs>
<linearGradient id="paint0_linear_126_489" x1="17.9808" y1="10.4687" x2="31.135" y2="14.5258" gradientUnits="userSpaceOnUse">
<stop stop-color="#00F0FF"/>
<stop offset="1" stop-color="#0184FF"/>
</linearGradient>
<linearGradient id="paint1_linear_126_489" x1="12.716" y1="26.798" x2="12.716" y2="10.8654" gradientUnits="userSpaceOnUse">
<stop stop-color="#0184FF"/>
<stop offset="1" stop-color="#2FAAF4"/>
</linearGradient>
<linearGradient id="paint2_linear_126_489" x1="36.9934" y1="28.2669" x2="36.9934" y2="10.4147" gradientUnits="userSpaceOnUse">
<stop offset="0.17" stop-color="#0184FF"/>
<stop offset="0.91" stop-color="#04BBE4"/>
</linearGradient>
</defs>
</svg>
