<svg width="86" height="40" viewBox="0 0 86 40" fill="none" xmlns="http://www.w3.org/2000/svg">
<rect width="85.7143" height="40" transform="translate(0.286133)" fill="#1F60AD"/>
<path d="M11.5197 9.49699V15.2989H10.4424V9.49699H7.4502V8.44971H14.5112V9.49699H11.5197Z" fill="white"/>
<path d="M16.1681 11.8748C16.1681 13.3816 17.1953 14.5068 18.761 14.5068C20.3268 14.5068 21.354 13.3816 21.354 11.8748C21.354 10.3681 20.3268 9.24289 18.761 9.24289C17.1953 9.24289 16.1681 10.3777 16.1681 11.8748ZM22.4716 11.8748C22.4716 13.8902 20.8961 15.4953 18.7617 15.4953C16.6273 15.4953 15.0518 13.9298 15.0518 11.8748C15.0518 9.81989 16.6273 8.25439 18.7617 8.25439C20.8961 8.25439 22.4716 9.85887 22.4716 11.8748Z" fill="white"/>
<path d="M27.0792 9.49699V15.2989H26.0019V9.49699H23.0098V8.44971H30.0708V9.49699H27.0792Z" fill="white"/>
<path d="M41.8628 12.738C41.5632 14.4402 40.1869 15.6147 38.332 15.6147C36.2275 15.6147 34.7217 14.0492 34.7217 11.9942C34.7217 9.93927 36.2275 8.37378 38.332 8.37378C40.1772 8.37378 41.6433 9.60637 41.8524 11.2798H40.7555C40.5758 10.145 39.5884 9.40126 38.332 9.40126C36.8059 9.40126 35.8784 10.5949 35.8784 11.9942C35.8784 13.3936 36.8059 14.5872 38.332 14.5872C39.6587 14.5872 40.4866 13.8926 40.7855 12.738H41.8628Z" fill="white"/>
<path d="M46.3412 9.63579H45.8124L44.5455 12.8454H47.5976L46.3412 9.63579ZM44.1469 13.8824L43.5386 15.4185H42.3818L45.1845 8.56934H47.0499L49.8024 15.4185H48.6157L48.0171 13.8824H44.1476H44.1469Z" fill="white"/>
<path d="M58.3892 15.4185L58.3697 9.6556H58.1899L55.9656 15.3796H54.6096L52.3456 9.6556H52.1762L52.1658 15.4185H51.1191L51.1491 8.56934H53.1233L55.3378 14.2837L57.5021 8.56934H59.4665L59.4965 15.4185H58.3892Z" fill="white"/>
<path d="M70.2686 15.4185H69.1516V8.56934H70.2686V15.4185ZM65.88 14.4013C67.0869 14.4013 67.0869 12.6109 65.88 12.6109H62.9679V14.4013H65.88ZM66.0493 11.6026C68.5928 11.6026 68.5823 15.4185 66.0396 15.4185H61.8906V8.56934H62.9679V11.6026H66.05H66.0493Z" fill="white"/>
<path d="M74.9372 8.15845C73.7107 8.15845 73.5212 7.669 73.5212 7.06261V6.96484H74.379C74.4389 7.24855 74.6584 7.32714 75.0075 7.32714H76.5935C76.9621 7.32714 77.1419 7.23897 77.222 6.96484H78.0798V7.05302C78.0798 7.66964 77.8903 8.15845 76.7635 8.15845H74.9385H74.9372ZM78.8868 15.4185H77.8095L77.8297 9.72395L77.5705 10.184L74.0201 15.4185H72.6641V8.56932H73.7414L73.7212 14.2735L73.9504 13.8626L77.521 8.56932H78.8875V15.4185H78.8868Z" fill="white"/>
<path d="M62.6005 27.7471H62.2585V26.8046H60.965V27.7471H60.623V25.5701H60.965V26.4749H62.2585V25.5701H62.6005V27.7471Z" fill="white"/>
<path d="M64.2766 25.9086H64.1085L63.706 26.9284H64.6758L64.2766 25.9086ZM63.579 27.2582L63.3856 27.7463H63.0176L63.9086 25.5693H64.5013L65.376 27.7463H64.9989L64.8087 27.2582H63.579Z" fill="white"/>
<path d="M68.0426 27.4205C68.4516 27.4205 68.4549 26.8263 68.0523 26.8263H67.0571V27.4205H68.0432H68.0426ZM67.0565 26.4998H68.0009C68.4034 26.4998 68.4001 25.8966 68.0165 25.8966H67.0558V26.4998H67.0565ZM68.7141 27.1343C68.7141 27.4455 68.4985 27.7471 68.0992 27.7471H66.7139V25.5701H68.0321C68.4379 25.5701 68.6535 25.8436 68.66 26.1669C68.6633 26.3317 68.6001 26.5247 68.4568 26.618C68.606 26.7081 68.7134 26.8915 68.7134 27.1343" fill="white"/>
<path d="M70.1717 25.8749L70.1652 26.0084C70.1463 26.4314 70.0258 27.1151 69.6455 27.4391H70.6947V25.8749H70.1717ZM71.0627 28.2634V27.7471H69.3257V28.2634H68.9961V27.4423H69.2241C69.5028 27.2959 69.6839 26.9662 69.7692 26.6308C69.8298 26.3912 69.8578 26.0614 69.8578 25.5701H71.0497V27.4423H71.3923V28.2634H71.0627Z" fill="white"/>
<path d="M73.94 27.7471H73.598V26.8046H72.3045V27.7471H71.9619V25.5701H72.3045V26.4749H73.598V25.5701H73.94V27.7471Z" fill="white"/>
<path d="M75.5623 26.8416L74.8368 27.7471H74.4434L75.3819 26.6116L74.5417 25.5701H74.9442L75.5812 26.363L76.2058 25.5701H76.6181L75.7656 26.5931L76.7067 27.7471H76.2723L75.5623 26.8416Z" fill="white"/>
<path fill-rule="evenodd" clip-rule="evenodd" d="M58.3877 23.0469H78.9663V30.2967H58.3877V23.0469ZM59.3406 23.9817V29.3619H78.0134V23.9817H59.3406Z" fill="white"/>
<path fill-rule="evenodd" clip-rule="evenodd" d="M54.5611 29.2045V30.2518H47.9749V23.2313H49.0425V28.4543L54.1423 23.2403L54.9011 23.977L49.7876 29.2045H54.5611ZM45.5826 30.248H38.8929V23.1528H45.5826V30.248ZM36.2309 28.1055L32.6271 24.8032L32.6649 30.1828L31.5974 30.1898L31.5596 24.7853L28.1818 28.0991L27.427 27.3585L32.0846 22.7898L36.9858 27.3643L36.2309 28.1048V28.1055ZM25.6716 30.1866H24.6048V27.2294H20.097V30.1866H19.0294V23.1706H25.6716V30.1866ZM16.3154 29.2045V30.2518H9.72918V23.2313H10.7967V28.4543L15.8171 23.2403L16.5759 23.977L11.5418 29.2045H16.3154ZM7.4502 32.9074H56.9541V19.7131H7.4502V32.9074ZM44.5151 24.2H39.9604V29.2007H44.5151V24.2ZM20.0967 24.218H24.6045V26.1828H20.0967V24.218Z" fill="white"/>
</svg>
