<svg width="120" height="36" viewBox="0 0 120 36" fill="none" xmlns="http://www.w3.org/2000/svg">
<path d="M112.818 35.7764H7.18248C3.21168 35.7764 0 32.5517 0 28.5648V7.21156C0 3.23641 3.21168 0 7.18248 0H112.818C116.777 0 120 3.22468 120 7.21156V28.5648C120 32.5517 116.788 35.7764 112.818 35.7764Z" fill="white"/>
<path d="M29.7936 8.27954H14.4827V14.2364H29.7936V8.27954Z" fill="url(#paint0_linear_4_203)"/>
<path d="M8.1759 25.5521V14.2481L14.4825 8.26782V25.5404H8.1759V25.5521Z" fill="url(#paint1_linear_4_203)"/>
<path d="M36.1122 25.5524V14.2484L29.7823 8.26807V25.5407H36.1122V25.5524Z" fill="url(#paint2_linear_4_203)"/>
<path d="M42.4418 14.2363H53.4433V25.5403H50.2783V17.1796H45.6068V25.5403H42.4418V14.2363Z" fill="black"/>
<path d="M64.2228 14.2368H67.3877V25.5407H64.2228V23.9108C63.8023 24.5206 63.2417 24.9896 62.5994 25.3297C61.9571 25.658 61.233 25.8339 60.4972 25.8222C57.3907 25.8222 55.0782 23.3949 55.0782 19.9005C55.0782 16.4061 57.3439 13.9202 60.5673 13.9202C62.0155 13.9202 63.452 14.5534 64.2228 15.7143V14.2368ZM64.1176 19.9122C64.1176 19.5252 64.0476 19.1383 63.9074 18.7748C63.7673 18.4113 63.5454 18.0829 63.2768 17.8132C63.0082 17.5435 62.6695 17.309 62.3191 17.1683C61.9571 17.0041 61.5717 16.9338 61.1863 16.9338C60.4155 16.9572 59.6797 17.2973 59.1425 17.8484C58.6052 18.4113 58.3133 19.1617 58.3133 19.9357C58.3133 20.7096 58.6169 21.4601 59.1658 22.0112C59.7147 22.574 60.4505 22.8906 61.2213 22.9024C61.9921 22.8906 62.7396 22.574 63.2885 22.0112C63.814 21.4366 64.1176 20.6861 64.1176 19.9122Z" fill="black"/>
<path d="M76.8593 25.5518L74.36 21.4359H72.6199V25.5518H69.56V14.2478H72.6199V18.7389H74.2549L76.8476 14.2595H80.3279L76.9644 19.8294L80.725 25.5401H76.8593V25.5518Z" fill="black"/>
<path d="M92.264 20.9202H83.7968C84.1238 22.2452 85.2099 23.0309 86.6815 23.0309C87.2421 23.0309 87.791 22.9136 88.3048 22.6791C88.8187 22.4445 89.2625 22.1162 89.6362 21.6941L91.4581 23.5585C90.3953 24.9891 88.445 25.8334 86.4713 25.8334C82.991 25.8334 80.4683 23.3826 80.4683 19.9117C80.4683 16.2414 83.2479 13.9548 86.4479 13.9548C89.6479 13.9548 92.3107 16.2532 92.3107 19.7124C92.334 20.029 92.3107 20.4277 92.264 20.9202ZM89.1574 18.8681C89.0523 17.543 87.9778 16.687 86.553 16.687C85.245 16.687 84.1355 17.332 83.8085 18.8681H89.1574Z" fill="black"/>
<path d="M103.195 14.2363V17.203H99.7032V25.5638H96.5266V17.203H93.0346V14.2481H103.195V14.2363Z" fill="black"/>
<path d="M110.307 14.2132L109.665 13.1109L109.034 14.2132H108.263L109.256 12.5832L108.252 11.0706H109.057L109.7 12.079L110.307 11.0706H111.066L110.062 12.6301L111.066 14.2132H110.307Z" fill="black"/>
<path d="M113.554 13.1339C113.554 13.8257 113.04 14.2596 112.351 14.2596C112.211 14.2713 112.059 14.2596 111.919 14.201C111.779 14.1541 111.65 14.072 111.545 13.9664C111.428 13.8609 111.346 13.7554 111.288 13.6029C111.23 13.4739 111.206 13.3332 111.183 13.1691H111.825C111.837 13.2981 111.907 13.427 112.024 13.5208C112.129 13.6029 112.269 13.6498 112.398 13.6381C112.468 13.6381 112.538 13.6381 112.596 13.6147C112.655 13.5912 112.713 13.556 112.771 13.4974C112.818 13.4505 112.853 13.3801 112.876 13.3215C112.888 13.2511 112.9 13.1925 112.888 13.1222C112.888 13.0518 112.876 12.9814 112.841 12.9228C112.818 12.8525 112.771 12.7938 112.713 12.7469C112.655 12.7 112.596 12.6648 112.526 12.6414C112.456 12.6179 112.386 12.6179 112.316 12.6179C112.211 12.6179 112.117 12.6297 112.012 12.6766C111.93 12.7235 111.837 12.7938 111.779 12.8759H111.195L111.405 11.0466H113.46L113.39 11.6681H111.919L111.86 12.2779C111.86 12.2779 112.024 12.0903 112.479 12.0903C112.619 12.0785 112.748 12.102 112.9 12.1489C113.028 12.1958 113.145 12.2779 113.25 12.3834C113.355 12.4889 113.425 12.5945 113.484 12.7352C113.542 12.8525 113.565 12.9932 113.554 13.1339Z" fill="black"/>
<path d="M111.265 10.6606C110.915 9.30041 109.817 8.33887 107.528 8.33887H104.772L105.157 10.8952C105.449 13.1935 106.325 13.9205 107.855 14.2019C107.866 14.2019 107.866 14.2019 107.878 14.2019C107.89 14.2019 107.89 14.2019 107.89 14.1902C107.89 14.1785 107.901 14.1785 107.901 14.1785C107.901 14.1785 107.901 14.1667 107.901 14.155C107.901 14.1433 107.901 14.1433 107.89 14.1316C107.89 14.1198 107.878 14.1198 107.866 14.1198C106.815 13.6743 106.699 12.2319 106.477 10.7662L106.301 9.59356H107.878C109.326 9.59356 110.447 9.57011 111.171 10.7075C111.171 10.7193 111.183 10.7193 111.183 10.7193C111.195 10.7193 111.195 10.7193 111.207 10.7193H111.218C111.218 10.7193 111.23 10.7193 111.23 10.7075L111.242 10.6958C111.265 10.6724 111.277 10.6724 111.265 10.6606Z" fill="#5FAE2D"/>
<defs>
<linearGradient id="paint0_linear_4_203" x1="16.0175" y1="9.36411" x2="27.7435" y2="12.9662" gradientUnits="userSpaceOnUse">
<stop stop-color="#00F0FF"/>
<stop offset="1" stop-color="#0184FF"/>
</linearGradient>
<linearGradient id="paint1_linear_4_203" x1="11.3278" y1="23.9693" x2="11.3278" y2="9.71899" gradientUnits="userSpaceOnUse">
<stop stop-color="#0184FF"/>
<stop offset="1" stop-color="#2FAAF4"/>
</linearGradient>
<linearGradient id="paint2_linear_4_203" x1="32.9551" y1="25.2833" x2="32.9551" y2="9.31611" gradientUnits="userSpaceOnUse">
<stop offset="0.17" stop-color="#0184FF"/>
<stop offset="0.91" stop-color="#04BBE4"/>
</linearGradient>
</defs>
</svg>
