<svg width="422" height="176" viewBox="0 0 422 176" fill="none" xmlns="http://www.w3.org/2000/svg">
<path d="M7.66338 77.1508C10.4972 72.2208 27.0164 63.0361 35.1846 58.9355C46.4732 52.6691 57.3945 49.7805 62.2256 48.9688C62.7353 48.8832 63.2379 49.13 63.4993 49.5758L67.4981 56.3951C67.8423 56.982 68.5852 57.1714 69.2446 57.0041C73.0632 56.0354 75.6127 60.6034 76.6856 62.9315C76.9654 63.5386 76.7003 64.2541 76.1066 64.5614L73.8662 65.7209C73.2694 66.0298 73.01 66.7398 73.2755 67.3571C85.1706 95.0162 99.939 134.471 101.354 138.407C102.787 142.395 100.351 145.101 98.9543 145.955L65.6911 163.172C61.7119 165.231 58.7936 162.537 57.8319 160.933L16.8564 96.5406C16.5008 95.9817 15.7773 95.7868 15.189 96.0913L12.64 97.4106C12.0369 97.7227 11.2878 97.5113 11.0124 96.8907C9.50269 93.489 9.77822 89.4591 10.7451 87.6234C11.0622 87.0214 11.3138 86.2401 11.0332 85.6202L7.64777 78.1401C7.50344 77.8212 7.48895 77.4542 7.66338 77.1508Z" fill="#0088FE"/>
<path fill-rule="evenodd" clip-rule="evenodd" d="M147.147 74.401C147.064 72.637 148.491 71.1629 150.257 71.2143L166.256 71.6799C167.772 71.724 169.083 70.6294 169.31 69.1296L174.666 33.7006C175.337 30.0293 177.079 23.1346 178.179 18.6619C179.141 14.7484 181.315 11.0223 182.116 9.84378C183.278 8.13545 184.145 6.85963 187.207 4.72761C191.346 1.8453 196.893 0.88069 199.149 0.758673C202.042 0.279825 208.803 -0.686995 212.665 0.776618C217.492 2.60613 225.249 6.96061 226.679 15.8228C227.526 21.0749 227.977 26.3812 228.336 30.6181C228.583 33.5304 228.788 35.9374 229.048 37.4741C229.36 39.3075 230.585 48.4187 231.823 57.6258C232.472 62.4475 233.124 67.2955 233.65 71.1383C233.849 72.5892 235.068 73.6822 236.532 73.7248L252.269 74.1828C253.968 74.2322 255.286 75.6813 255.175 77.3771L253.677 100.31L252.552 138.75L252.99 155.841L252.534 172.51C252.491 174.083 251.24 175.355 249.667 175.425L239.075 175.892L146.237 173.191C145.741 173.176 145.246 173.051 144.869 172.728C144.178 172.138 143.474 171.214 143.501 170.296C143.519 169.659 143.791 167.334 144.199 163.837C144.752 159.105 145.555 152.227 146.322 144.479C146.975 137.873 146.858 131.379 146.753 125.508C146.645 119.518 146.549 114.176 147.294 110.022C147.322 109.867 147.34 109.712 147.344 109.554C147.667 98.3149 147.621 84.4249 147.147 74.401ZM220.828 73.3884C222.703 73.404 224.126 71.7134 223.808 69.8657C222.265 60.8794 219.979 46.49 219.716 42.0543C219.509 38.5625 219.851 30.819 220.155 23.9328C220.294 20.7916 220.425 17.8288 220.492 15.5293C220.592 12.1285 218.907 10.708 212.766 10.1286L197.179 10.3429C193.497 10.0131 186.231 11.1262 186.624 18.217C186.696 19.522 186.768 20.6966 186.834 21.7669C187.215 27.9662 187.38 30.6641 186.136 34.8994C185.115 38.3736 184.495 43.8204 184.062 47.6327C183.875 49.2703 183.724 50.6063 183.589 51.3549C183.292 53.0039 181.047 62.1005 179.404 68.5082C178.931 70.3517 180.257 72.1701 182.158 72.2648C186.923 72.5023 195.338 72.9014 201.443 73.0791C207.585 73.2578 216.073 73.3487 220.828 73.3884Z" fill="#0088FE"/>
<path d="M406.306 62.8919L391.852 61.0596C378.33 57.5852 325.798 52.6861 322.977 52.5451C320.157 52.404 320.599 57.5401 320.173 59.4915L314.63 103.569C312.343 117.633 307.57 146.613 306.775 150.016C305.979 153.419 308.678 153.977 310.126 153.83C311.631 153.747 315.858 153.66 320.731 153.975C326.822 154.368 387.671 162.073 390.324 162.784C392.446 163.353 393.211 161.711 393.329 160.819L402.011 98.7746L402.165 98.0886C402.503 96.5857 403.96 95.6121 405.477 95.8753L411.655 96.9468C413.159 97.2077 414.607 96.2531 414.96 94.7677L419.31 76.4513C419.693 74.8418 418.648 73.2406 417.021 72.9419L410.837 71.8065C409.239 71.5134 408.102 69.9451 408.189 68.3237C408.264 66.9156 408.307 65.5194 408.315 65.2336C408.316 65.1979 408.318 65.1621 408.319 65.1265C408.378 63.7317 407.178 63.1259 406.306 62.8919Z" fill="#0088FE"/>
<path d="M304.736 96.6926C304.767 81.9605 312.151 75.3638 329.012 71.3874C315.051 68.5021 307.973 71.5569 302.229 76.2879" stroke="#0088FE" stroke-width="4" stroke-linecap="round"/>
</svg>
