<svg width="23" height="25" viewBox="0 0 23 25" fill="none" xmlns="http://www.w3.org/2000/svg">
<g clip-path="url(#clip0_4_233)">
<path fill-rule="evenodd" clip-rule="evenodd" d="M0.0449219 7.80455H22.3391V6.8667H0.0449219V7.80455Z" fill="#E22C38"/>
<path fill-rule="evenodd" clip-rule="evenodd" d="M17.1246 9.51305H14.6602V18.2816H13.4813V12.3321C13.4813 11.834 13.4528 11.5189 13.3603 11.2111C13.1817 10.5958 12.767 9.9381 12.2458 9.6741C11.9312 9.51305 11.5671 9.44709 11.1885 9.44709C10.7459 9.44709 10.3312 9.5423 9.98155 9.7621C9.51685 10.0478 9.15965 10.6689 8.99565 11.2699C8.91715 11.5482 8.89565 11.8557 8.89565 12.3321V18.2816H7.71725V9.51305H5.2526V18.2816H4.08843L4.07388 9.51305H1.68799V18.2816H0.516595V9.51305H0.0449219V8.5752H22.339V9.51305H21.8679V18.2816H20.6965V9.51305H18.296V18.2816H17.1246V9.51305Z" fill="#E22C38"/>
<path fill-rule="evenodd" clip-rule="evenodd" d="M0.378052 5.41247L1.06379 4.47461L1.74254 5.41247L1.06379 6.35037L0.378052 5.41247Z" fill="#E22C38"/>
<path fill-rule="evenodd" clip-rule="evenodd" d="M3.48553 22.0945C3.88514 22.2705 4.22823 22.6956 4.22823 23.311C4.22823 24.1024 3.80664 24.6077 3.2709 24.7616C2.94224 24.8642 2.5997 24.8642 2.28559 24.8642H0.377808V19.5083H2.39962C2.64967 19.5083 2.92836 19.5154 3.20694 19.5889C3.68561 19.7206 4.12819 20.1311 4.12819 20.8858C4.12819 21.5818 3.74257 21.9188 3.48553 22.0581V22.0945ZM2.43504 21.8309C2.62124 21.8309 2.79223 21.8088 2.93525 21.7211C3.14232 21.6038 3.28545 21.3547 3.28545 20.981C3.28545 20.6146 3.1139 20.3728 2.86374 20.2851C2.74282 20.2337 2.59271 20.2188 2.39962 20.2188H1.20667V21.8309H2.43504ZM3.36395 23.311C3.36395 22.9226 3.17841 22.7028 2.95679 22.6076C2.81377 22.5488 2.64967 22.5342 2.50666 22.5342H1.20667V24.1608H2.49267C2.64967 24.1608 2.79978 24.1462 2.92137 24.1024C3.19995 23.9922 3.36395 23.7358 3.36395 23.311Z" fill="#E22C38"/>
<path fill-rule="evenodd" clip-rule="evenodd" d="M4.47677 5.37579C4.29823 5.30984 4.16965 5.14129 4.16965 4.93642C4.16965 4.67983 4.36974 4.47461 4.62689 4.47461C4.87694 4.47461 5.07703 4.67983 5.07703 4.93642C5.07703 5.14129 4.95544 5.30984 4.7769 5.36864L5.21258 6.27724H4.04108L4.47677 5.37579Z" fill="#E22C38"/>
<path fill-rule="evenodd" clip-rule="evenodd" d="M10.842 24.0802L10.2848 24.8641H5.04138L7.88443 19.5083H9.62753V24.1023L10.842 24.0802ZM8.81323 24.1386V20.1603H8.27058L6.20583 24.1386H8.81323Z" fill="#E22C38"/>
<path fill-rule="evenodd" clip-rule="evenodd" d="M7.70605 6.20982H14.6491V5.27197H7.70605V6.20982Z" fill="#E22C38"/>
<path fill-rule="evenodd" clip-rule="evenodd" d="M9.81512 4.50183H12.6297V3.56396H9.81512V4.50183Z" fill="#E22C38"/>
<path fill-rule="evenodd" clip-rule="evenodd" d="M10.1486 1.07767H12.2204V0.146973H10.1486V1.07767Z" fill="#E22C38"/>
<path fill-rule="evenodd" clip-rule="evenodd" d="M10.3707 1.85547H11.8993L11.135 2.91053L10.3707 1.85547Z" fill="#E22C38"/>
<path fill-rule="evenodd" clip-rule="evenodd" d="M16.3375 19.5083V24.8643H15.5087V22.3804H12.8587V24.8643H12.0369V19.5083H12.8587V21.6477H15.5087V19.5083H16.3375Z" fill="#E22C38"/>
<path fill-rule="evenodd" clip-rule="evenodd" d="M17.5809 5.36864C17.4024 5.30984 17.2808 5.14129 17.2808 4.93642C17.2808 4.67983 17.4809 4.47461 17.731 4.47461C17.9881 4.47461 18.1881 4.67983 18.1881 4.93642C18.1881 5.14129 18.0596 5.30984 17.881 5.37579L18.3167 6.27724H17.1452L17.5809 5.36864Z" fill="#E22C38"/>
<path fill-rule="evenodd" clip-rule="evenodd" d="M19.9632 22.6807L18.5278 24.8642H17.6989L19.5706 22.102L17.785 19.5083H18.7778L20.0778 21.3987L21.3132 19.5083H22.1135L20.4634 21.9701L22.4492 24.8642H21.4633L19.9632 22.6807Z" fill="#E22C38"/>
<path fill-rule="evenodd" clip-rule="evenodd" d="M20.5857 5.41249L21.2644 4.47461L21.9502 5.41249L21.2644 6.35034L20.5857 5.41249Z" fill="#E22C38"/>
</g>
<defs>
<clipPath id="clip0_4_233">
<rect width="23" height="25" fill="white"/>
</clipPath>
</defs>
</svg>
