<svg width="9" height="11" viewBox="0 0 9 11" fill="none" xmlns="http://www.w3.org/2000/svg">
<path d="M2.16667 4.875H6.83333V3.875H2.16667V4.875ZM7.5 5.5V8.875H8.5V5.5H7.5ZM6.83333 9.5H2.16667V10.5H6.83333V9.5ZM1.5 8.875V5.5H0.5V8.875H1.5ZM2.16667 9.5C1.78118 9.5 1.5 9.20319 1.5 8.875H0.5C0.5 9.78945 1.26349 10.5 2.16667 10.5V9.5ZM7.5 8.875C7.5 9.20319 7.21882 9.5 6.83333 9.5V10.5C7.73651 10.5 8.5 9.78945 8.5 8.875H7.5ZM6.83333 4.875C7.21882 4.875 7.5 5.17181 7.5 5.5H8.5C8.5 4.58555 7.73651 3.875 6.83333 3.875V4.875ZM2.16667 3.875C1.26349 3.875 0.5 4.58555 0.5 5.5H1.5C1.5 5.17181 1.78118 4.875 2.16667 4.875V3.875ZM2.66667 4.375V3.25H1.66667V4.375H2.66667ZM6.33333 3.25V4.375H7.33333V3.25H6.33333ZM4.5 1.5C5.52982 1.5 6.33333 2.30049 6.33333 3.25H7.33333C7.33333 1.71423 6.04751 0.5 4.5 0.5V1.5ZM2.66667 3.25C2.66667 2.30049 3.47018 1.5 4.5 1.5V0.5C2.95249 0.5 1.66667 1.71423 1.66667 3.25H2.66667Z" fill="white"/>
</svg>
