<svg width="375" height="580" viewBox="0 0 375 580" fill="none" xmlns="http://www.w3.org/2000/svg">
<path d="M435.115 108.991L399.074 145.032H362.78L435.115 72.6977V108.991Z" fill="#49C3F8"/>
<path d="M435.115 36.4051L326.486 145.034H290.193L435.115 0.11142V36.4051Z" fill="#49C3F8"/>
<path d="M398.947 0L290.082 108.865V72.5716L362.653 0L398.947 0Z" fill="#49C3F8"/>
<path d="M326.363 0L290.069 36.2779V0L326.363 0Z" fill="#49C3F8"/>
<path d="M254.026 0L290.083 36.0411V72.3348L217.748 0L254.026 0Z" fill="#49C3F8"/>
<path d="M181.454 0L290.083 108.628V144.906L145.16 0L181.454 0Z" fill="#49C3F8"/>
<path d="M253.898 145.032H217.621L145.033 72.4445V36.1666L253.898 145.032Z" fill="#49C3F8"/>
<path d="M181.329 145.035H145.035V108.741L181.329 145.035Z" fill="#49C3F8"/>
<path d="M108.993 0L145.034 36.0411V72.3348L72.7155 0L108.993 0Z" fill="#49C3F8"/>
<path d="M36.406 0L145.034 108.628V144.906L0.128021 0L36.406 0Z" fill="#49C3F8"/>
<path d="M108.865 145.033H72.5874L4.57764e-05 72.4453V36.1674L108.865 145.033Z" fill="#49C3F8"/>
<path d="M36.2969 145.035H0.00322723L0.00322723 108.741L36.2969 145.035Z" fill="#49C3F8"/>
<path d="M435.115 254.026L399.074 290.067H362.78L435.115 217.732V254.026Z" fill="#49C3F8"/>
<path d="M435.115 181.439L326.486 290.067H290.193L435.115 145.145V181.439Z" fill="#49C3F8"/>
<path d="M398.947 145.034L290.082 253.9V217.606L362.653 145.034H398.947Z" fill="#49C3F8"/>
<path d="M326.363 145.034L290.085 181.328V145.034H326.363Z" fill="#49C3F8"/>
<path d="M217.367 290.066H181.089L145.032 254.025V217.732L217.367 290.066Z" fill="#49C3F8"/>
<path d="M289.956 290.066H253.662L145.033 181.438V145.16L289.956 290.066Z" fill="#49C3F8"/>
<path d="M217.495 145.034L290.083 217.606V253.9L181.201 145.034L217.495 145.034Z" fill="#49C3F8"/>
<path d="M290.083 145.034V181.328L253.789 145.034H290.083Z" fill="#49C3F8"/>
<path d="M145.034 254.026L108.993 290.067H72.7155L145.034 217.732V254.026Z" fill="#49C3F8"/>
<path d="M145.034 181.439L36.406 290.067H0.128021L145.034 145.145V181.439Z" fill="#49C3F8"/>
<path d="M108.865 145.034L4.57764e-05 253.9V217.622L72.5716 145.034H108.865Z" fill="#49C3F8"/>
<path d="M36.2969 145.034L0.00322723 181.328L0.00322723 145.034H36.2969Z" fill="#49C3F8"/>
<path d="M435.115 398.924L399.074 434.965H362.78L435.115 362.63V398.924Z" fill="#49C3F8"/>
<path d="M435.115 326.338L326.486 434.967H290.193L435.115 290.044V326.338Z" fill="#49C3F8"/>
<path d="M398.947 289.933L290.082 398.798V362.504L362.653 289.933H398.947Z" fill="#49C3F8"/>
<path d="M326.363 289.933L290.069 326.211V289.933H326.363Z" fill="#49C3F8"/>
<path d="M254.026 289.933L290.083 325.974V362.268L217.748 289.933H254.026Z" fill="#49C3F8"/>
<path d="M181.454 289.933L290.083 398.561V434.839L145.16 289.933H181.454Z" fill="#49C3F8"/>
<path d="M253.898 434.965H217.621L145.033 362.378V326.1L253.898 434.965Z" fill="#49C3F8"/>
<path d="M181.329 434.967H145.035V398.673L181.329 434.967Z" fill="#49C3F8"/>
<path d="M108.993 289.933L145.034 325.974V362.268L72.7155 289.933H108.993Z" fill="#49C3F8"/>
<path d="M36.406 289.933L145.034 398.561V434.839L0.128021 289.933H36.406Z" fill="#49C3F8"/>
<path d="M108.865 434.965H72.5874L4.57764e-05 362.378V326.1L108.865 434.965Z" fill="#49C3F8"/>
<path d="M36.2969 434.967H0.00322723L0.00322723 398.673L36.2969 434.967Z" fill="#49C3F8"/>
<path d="M435.115 543.959L399.074 580H362.78L435.115 507.665V543.959Z" fill="#49C3F8"/>
<path d="M435.115 471.372L326.486 580H290.193L435.115 435.078V471.372Z" fill="#49C3F8"/>
<path d="M398.947 434.967L290.082 543.832V507.539L362.653 434.967H398.947Z" fill="#49C3F8"/>
<path d="M326.363 434.967L290.085 471.261V434.967H326.363Z" fill="#49C3F8"/>
<path d="M217.367 579.999H181.089L145.032 543.958V507.664L217.367 579.999Z" fill="#49C3F8"/>
<path d="M289.956 579.999H253.662L145.033 471.37V435.093L289.956 579.999Z" fill="#49C3F8"/>
<path d="M217.495 434.967L290.083 507.539V543.832L181.201 434.967H217.495Z" fill="#49C3F8"/>
<path d="M290.083 434.967V471.261L253.789 434.967H290.083Z" fill="#49C3F8"/>
<path d="M145.034 543.959L108.993 580H72.7155L145.034 507.665V543.959Z" fill="#49C3F8"/>
<path d="M145.034 471.372L36.406 580H0.128021L145.034 435.078V471.372Z" fill="#49C3F8"/>
<path d="M108.865 434.967L4.57764e-05 543.832V507.554L72.5716 434.967H108.865Z" fill="#49C3F8"/>
<path d="M36.2969 434.967L0.00322723 471.261L0.00322723 434.967H36.2969Z" fill="#49C3F8"/>
</svg>
