<svg width="208" height="321" viewBox="0 0 208 321" fill="none" xmlns="http://www.w3.org/2000/svg">
<rect x="66.1012" y="86.5881" width="98.8745" height="97.5013" rx="6.67152" fill="white"/>
<path d="M79.5404 97.2114H76.8738V99.8409H79.5404V97.2114Z" fill="black"/>
<path d="M82.2069 97.2114H79.5404V99.8409H82.2069V97.2114Z" fill="black"/>
<path d="M84.8734 97.2114H82.2069V99.8409H84.8734V97.2114Z" fill="black"/>
<path d="M87.54 97.2114H84.8734V99.8409H87.54V97.2114Z" fill="black"/>
<path d="M90.2065 97.2114H87.54V99.8409H90.2065V97.2114Z" fill="black"/>
<path d="M92.8731 97.2114H90.2065V99.8409H92.8731V97.2114Z" fill="black"/>
<path d="M95.5396 97.2114H92.8731V99.8409H95.5396V97.2114Z" fill="black"/>
<path d="M100.873 97.2114H98.2061V99.8409H100.873V97.2114Z" fill="black"/>
<path d="M106.206 97.2114H103.539V99.8409H106.206V97.2114Z" fill="black"/>
<path d="M119.538 97.2114H116.872V99.8409H119.538V97.2114Z" fill="black"/>
<path d="M122.205 97.2114H119.538V99.8409H122.205V97.2114Z" fill="black"/>
<path d="M127.538 97.2114H124.872V99.8409H127.538V97.2114Z" fill="black"/>
<path d="M132.871 97.2114H130.205V99.8409H132.871V97.2114Z" fill="black"/>
<path d="M138.204 97.2114H135.538V99.8409H138.204V97.2114Z" fill="black"/>
<path d="M140.871 97.2114H138.204V99.8409H140.871V97.2114Z" fill="black"/>
<path d="M143.537 97.2114H140.871V99.8409H143.537V97.2114Z" fill="black"/>
<path d="M146.204 97.2114H143.537V99.8409H146.204V97.2114Z" fill="black"/>
<path d="M148.87 97.2114H146.204V99.8409H148.87V97.2114Z" fill="black"/>
<path d="M151.537 97.2114H148.87V99.8409H151.537V97.2114Z" fill="black"/>
<path d="M154.204 97.2114H151.537V99.8409H154.204V97.2114Z" fill="black"/>
<path d="M79.5404 99.8409H76.8738V102.47H79.5404V99.8409Z" fill="black"/>
<path d="M95.5396 99.8409H92.8731V102.47H95.5396V99.8409Z" fill="black"/>
<path d="M103.539 99.8409H100.873V102.47H103.539V99.8409Z" fill="black"/>
<path d="M106.206 99.8409H103.539V102.47H106.206V99.8409Z" fill="black"/>
<path d="M108.872 99.8409H106.206V102.47H108.872V99.8409Z" fill="black"/>
<path d="M111.539 99.8409H108.872V102.47H111.539V99.8409Z" fill="black"/>
<path d="M116.872 99.8409H114.205V102.47H116.872V99.8409Z" fill="black"/>
<path d="M119.538 99.8409H116.872V102.47H119.538V99.8409Z" fill="black"/>
<path d="M138.204 99.8409H135.538V102.47H138.204V99.8409Z" fill="black"/>
<path d="M154.204 99.8409H151.537V102.47H154.204V99.8409Z" fill="black"/>
<path d="M79.5404 102.47H76.8738V105.1H79.5404V102.47Z" fill="black"/>
<path d="M84.8734 102.47H82.2069V105.1H84.8734V102.47Z" fill="black"/>
<path d="M87.54 102.47H84.8734V105.1H87.54V102.47Z" fill="black"/>
<path d="M90.2065 102.47H87.54V105.1H90.2065V102.47Z" fill="black"/>
<path d="M95.5396 102.47H92.8731V105.1H95.5396V102.47Z" fill="black"/>
<path d="M106.206 102.47H103.539V105.1H106.206V102.47Z" fill="black"/>
<path d="M108.872 102.47H106.206V105.1H108.872V102.47Z" fill="black"/>
<path d="M111.539 102.47H108.872V105.1H111.539V102.47Z" fill="black"/>
<path d="M114.205 102.47H111.539V105.1H114.205V102.47Z" fill="black"/>
<path d="M119.538 102.47H116.872V105.1H119.538V102.47Z" fill="black"/>
<path d="M122.205 102.47H119.538V105.1H122.205V102.47Z" fill="black"/>
<path d="M130.205 102.47H127.538V105.1H130.205V102.47Z" fill="black"/>
<path d="M132.871 102.47H130.205V105.1H132.871V102.47Z" fill="black"/>
<path d="M138.204 102.47H135.538V105.1H138.204V102.47Z" fill="black"/>
<path d="M143.537 102.47H140.871V105.1H143.537V102.47Z" fill="black"/>
<path d="M146.204 102.47H143.537V105.1H146.204V102.47Z" fill="black"/>
<path d="M148.87 102.47H146.204V105.1H148.87V102.47Z" fill="black"/>
<path d="M154.204 102.47H151.537V105.1H154.204V102.47Z" fill="black"/>
<path d="M79.5404 105.1H76.8738V107.729H79.5404V105.1Z" fill="black"/>
<path d="M84.8734 105.1H82.2069V107.729H84.8734V105.1Z" fill="black"/>
<path d="M87.54 105.1H84.8734V107.729H87.54V105.1Z" fill="black"/>
<path d="M90.2065 105.1H87.54V107.729H90.2065V105.1Z" fill="black"/>
<path d="M95.5396 105.1H92.8731V107.729H95.5396V105.1Z" fill="black"/>
<path d="M100.873 105.1H98.2061V107.729H100.873V105.1Z" fill="black"/>
<path d="M103.539 105.1H100.873V107.729H103.539V105.1Z" fill="black"/>
<path d="M106.206 105.1H103.539V107.729H106.206V105.1Z" fill="black"/>
<path d="M108.872 105.1H106.206V107.729H108.872V105.1Z" fill="black"/>
<path d="M114.205 105.1H111.539V107.729H114.205V105.1Z" fill="black"/>
<path d="M122.205 105.1H119.538V107.729H122.205V105.1Z" fill="black"/>
<path d="M130.205 105.1H127.538V107.729H130.205V105.1Z" fill="black"/>
<path d="M138.204 105.1H135.538V107.729H138.204V105.1Z" fill="black"/>
<path d="M143.537 105.1H140.871V107.729H143.537V105.1Z" fill="black"/>
<path d="M146.204 105.1H143.537V107.729H146.204V105.1Z" fill="black"/>
<path d="M148.87 105.1H146.204V107.729H148.87V105.1Z" fill="black"/>
<path d="M154.204 105.1H151.537V107.729H154.204V105.1Z" fill="black"/>
<path d="M79.5404 107.729H76.8738V110.359H79.5404V107.729Z" fill="black"/>
<path d="M84.8734 107.729H82.2069V110.359H84.8734V107.729Z" fill="black"/>
<path d="M87.54 107.729H84.8734V110.359H87.54V107.729Z" fill="black"/>
<path d="M90.2065 107.729H87.54V110.359H90.2065V107.729Z" fill="black"/>
<path d="M95.5396 107.729H92.8731V110.359H95.5396V107.729Z" fill="black"/>
<path d="M114.205 107.729H111.539V110.359H114.205V107.729Z" fill="black"/>
<path d="M116.872 107.729H114.205V110.359H116.872V107.729Z" fill="black"/>
<path d="M119.538 107.729H116.872V110.359H119.538V107.729Z" fill="black"/>
<path d="M124.872 107.729H122.205V110.359H124.872V107.729Z" fill="black"/>
<path d="M138.204 107.729H135.538V110.359H138.204V107.729Z" fill="black"/>
<path d="M143.537 107.729H140.871V110.359H143.537V107.729Z" fill="black"/>
<path d="M146.204 107.729H143.537V110.359H146.204V107.729Z" fill="black"/>
<path d="M148.87 107.729H146.204V110.359H148.87V107.729Z" fill="black"/>
<path d="M154.204 107.729H151.537V110.359H154.204V107.729Z" fill="black"/>
<path d="M79.5404 110.359H76.8738V112.988H79.5404V110.359Z" fill="black"/>
<path d="M95.5396 110.359H92.8731V112.988H95.5396V110.359Z" fill="black"/>
<path d="M100.873 110.359H98.2061V112.988H100.873V110.359Z" fill="black"/>
<path d="M103.539 110.359H100.873V112.988H103.539V110.359Z" fill="black"/>
<path d="M106.206 110.359H103.539V112.988H106.206V110.359Z" fill="black"/>
<path d="M108.872 110.359H106.206V112.988H108.872V110.359Z" fill="black"/>
<path d="M111.539 110.359H108.872V112.988H111.539V110.359Z" fill="black"/>
<path d="M114.205 110.359H111.539V112.988H114.205V110.359Z" fill="black"/>
<path d="M119.538 110.359H116.872V112.988H119.538V110.359Z" fill="black"/>
<path d="M122.205 110.359H119.538V112.988H122.205V110.359Z" fill="black"/>
<path d="M138.204 110.359H135.538V112.988H138.204V110.359Z" fill="black"/>
<path d="M154.204 110.359H151.537V112.988H154.204V110.359Z" fill="black"/>
<path d="M79.5404 112.988H76.8738V115.618H79.5404V112.988Z" fill="black"/>
<path d="M82.2069 112.988H79.5404V115.618H82.2069V112.988Z" fill="black"/>
<path d="M84.8734 112.988H82.2069V115.618H84.8734V112.988Z" fill="black"/>
<path d="M87.54 112.988H84.8734V115.618H87.54V112.988Z" fill="black"/>
<path d="M90.2065 112.988H87.54V115.618H90.2065V112.988Z" fill="black"/>
<path d="M92.8731 112.988H90.2065V115.618H92.8731V112.988Z" fill="black"/>
<path d="M95.5396 112.988H92.8731V115.618H95.5396V112.988Z" fill="black"/>
<path d="M100.873 112.988H98.2061V115.618H100.873V112.988Z" fill="black"/>
<path d="M106.206 112.988H103.539V115.618H106.206V112.988Z" fill="black"/>
<path d="M111.539 112.988H108.872V115.618H111.539V112.988Z" fill="black"/>
<path d="M116.872 112.988H114.205V115.618H116.872V112.988Z" fill="black"/>
<path d="M122.205 112.988H119.538V115.618H122.205V112.988Z" fill="black"/>
<path d="M127.538 112.988H124.872V115.618H127.538V112.988Z" fill="black"/>
<path d="M132.871 112.988H130.205V115.618H132.871V112.988Z" fill="black"/>
<path d="M138.204 112.988H135.538V115.618H138.204V112.988Z" fill="black"/>
<path d="M140.871 112.988H138.204V115.618H140.871V112.988Z" fill="black"/>
<path d="M143.537 112.988H140.871V115.618H143.537V112.988Z" fill="black"/>
<path d="M146.204 112.988H143.537V115.618H146.204V112.988Z" fill="black"/>
<path d="M148.87 112.988H146.204V115.618H148.87V112.988Z" fill="black"/>
<path d="M151.537 112.988H148.87V115.618H151.537V112.988Z" fill="black"/>
<path d="M154.204 112.988H151.537V115.618H154.204V112.988Z" fill="black"/>
<path d="M103.539 115.618H100.873V118.247H103.539V115.618Z" fill="black"/>
<path d="M116.872 115.618H114.205V118.247H116.872V115.618Z" fill="black"/>
<path d="M124.872 115.618H122.205V118.247H124.872V115.618Z" fill="black"/>
<path d="M127.538 115.618H124.872V118.247H127.538V115.618Z" fill="black"/>
<path d="M130.205 115.618H127.538V118.247H130.205V115.618Z" fill="black"/>
<path d="M132.871 115.618H130.205V118.247H132.871V115.618Z" fill="black"/>
<path d="M92.8731 118.247H90.2065V120.877H92.8731V118.247Z" fill="black"/>
<path d="M95.5396 118.247H92.8731V120.877H95.5396V118.247Z" fill="black"/>
<path d="M100.873 118.247H98.2061V120.877H100.873V118.247Z" fill="black"/>
<path d="M103.539 118.247H100.873V120.877H103.539V118.247Z" fill="black"/>
<path d="M108.872 118.247H106.206V120.877H108.872V118.247Z" fill="black"/>
<path d="M111.539 118.247H108.872V120.877H111.539V118.247Z" fill="black"/>
<path d="M116.872 118.247H114.205V120.877H116.872V118.247Z" fill="black"/>
<path d="M119.538 118.247H116.872V120.877H119.538V118.247Z" fill="black"/>
<path d="M122.205 118.247H119.538V120.877H122.205V118.247Z" fill="black"/>
<path d="M124.872 118.247H122.205V120.877H124.872V118.247Z" fill="black"/>
<path d="M135.538 118.247H132.871V120.877H135.538V118.247Z" fill="black"/>
<path d="M140.871 118.247H138.204V120.877H140.871V118.247Z" fill="black"/>
<path d="M146.204 118.247H143.537V120.877H146.204V118.247Z" fill="black"/>
<path d="M154.204 118.247H151.537V120.877H154.204V118.247Z" fill="black"/>
<path d="M79.5404 120.877H76.8738V123.506H79.5404V120.877Z" fill="black"/>
<path d="M87.54 120.877H84.8734V123.506H87.54V120.877Z" fill="black"/>
<path d="M98.2061 120.877H95.5396V123.506H98.2061V120.877Z" fill="black"/>
<path d="M100.873 120.877H98.2061V123.506H100.873V120.877Z" fill="black"/>
<path d="M103.539 120.877H100.873V123.506H103.539V120.877Z" fill="black"/>
<path d="M119.538 120.877H116.872V123.506H119.538V120.877Z" fill="black"/>
<path d="M124.872 120.877H122.205V123.506H124.872V120.877Z" fill="black"/>
<path d="M130.205 120.877H127.538V123.506H130.205V120.877Z" fill="black"/>
<path d="M135.538 120.877H132.871V123.506H135.538V120.877Z" fill="black"/>
<path d="M79.5404 123.506H76.8738V126.136H79.5404V123.506Z" fill="black"/>
<path d="M87.54 123.506H84.8734V126.136H87.54V123.506Z" fill="black"/>
<path d="M90.2065 123.506H87.54V126.136H90.2065V123.506Z" fill="black"/>
<path d="M95.5396 123.506H92.8731V126.136H95.5396V123.506Z" fill="black"/>
<path d="M98.2061 123.506H95.5396V126.136H98.2061V123.506Z" fill="black"/>
<path d="M100.873 123.506H98.2061V126.136H100.873V123.506Z" fill="black"/>
<path d="M106.206 123.506H103.539V126.136H106.206V123.506Z" fill="black"/>
<path d="M111.539 123.506H108.872V126.136H111.539V123.506Z" fill="black"/>
<path d="M119.538 123.506H116.872V126.136H119.538V123.506Z" fill="black"/>
<path d="M127.538 123.506H124.872V126.136H127.538V123.506Z" fill="black"/>
<path d="M132.871 123.506H130.205V126.136H132.871V123.506Z" fill="black"/>
<path d="M138.204 123.506H135.538V126.136H138.204V123.506Z" fill="black"/>
<path d="M143.537 123.506H140.871V126.136H143.537V123.506Z" fill="black"/>
<path d="M148.87 123.506H146.204V126.136H148.87V123.506Z" fill="black"/>
<path d="M154.204 123.506H151.537V126.136H154.204V123.506Z" fill="black"/>
<path d="M92.8731 126.136H90.2065V128.766H92.8731V126.136Z" fill="black"/>
<path d="M106.206 126.136H103.539V128.766H106.206V126.136Z" fill="black"/>
<path d="M114.205 126.136H111.539V128.766H114.205V126.136Z" fill="black"/>
<path d="M116.872 126.136H114.205V128.766H116.872V126.136Z" fill="black"/>
<path d="M122.205 126.136H119.538V128.766H122.205V126.136Z" fill="black"/>
<path d="M127.538 126.136H124.872V128.766H127.538V126.136Z" fill="black"/>
<path d="M130.205 126.136H127.538V128.766H130.205V126.136Z" fill="black"/>
<path d="M132.871 126.136H130.205V128.766H132.871V126.136Z" fill="black"/>
<path d="M135.538 126.136H132.871V128.766H135.538V126.136Z" fill="black"/>
<path d="M140.871 126.136H138.204V128.766H140.871V126.136Z" fill="black"/>
<path d="M143.537 126.136H140.871V128.766H143.537V126.136Z" fill="black"/>
<path d="M84.8734 128.766H82.2069V131.395H84.8734V128.766Z" fill="black"/>
<path d="M95.5396 128.766H92.8731V131.395H95.5396V128.766Z" fill="black"/>
<path d="M100.873 128.766H98.2061V131.395H100.873V128.766Z" fill="black"/>
<path d="M103.539 128.766H100.873V131.395H103.539V128.766Z" fill="black"/>
<path d="M106.206 128.766H103.539V131.395H106.206V128.766Z" fill="black"/>
<path d="M108.872 128.766H106.206V131.395H108.872V128.766Z" fill="black"/>
<path d="M111.539 128.766H108.872V131.395H111.539V128.766Z" fill="black"/>
<path d="M116.872 128.766H114.205V131.395H116.872V128.766Z" fill="black"/>
<path d="M119.538 128.766H116.872V131.395H119.538V128.766Z" fill="black"/>
<path d="M127.538 128.766H124.872V131.395H127.538V128.766Z" fill="black"/>
<path d="M130.205 128.766H127.538V131.395H130.205V128.766Z" fill="black"/>
<path d="M138.204 128.766H135.538V131.395H138.204V128.766Z" fill="black"/>
<path d="M143.537 128.766H140.871V131.395H143.537V128.766Z" fill="black"/>
<path d="M148.87 128.766H146.204V131.395H148.87V128.766Z" fill="black"/>
<path d="M154.204 128.766H151.537V131.395H154.204V128.766Z" fill="black"/>
<path d="M79.5404 131.395H76.8738V134.025H79.5404V131.395Z" fill="black"/>
<path d="M82.2069 131.395H79.5404V134.025H82.2069V131.395Z" fill="black"/>
<path d="M84.8734 131.395H82.2069V134.025H84.8734V131.395Z" fill="black"/>
<path d="M87.54 131.395H84.8734V134.025H87.54V131.395Z" fill="black"/>
<path d="M90.2065 131.395H87.54V134.025H90.2065V131.395Z" fill="black"/>
<path d="M92.8731 131.395H90.2065V134.025H92.8731V131.395Z" fill="black"/>
<path d="M119.538 131.395H116.872V134.025H119.538V131.395Z" fill="black"/>
<path d="M122.205 131.395H119.538V134.025H122.205V131.395Z" fill="black"/>
<path d="M127.538 131.395H124.872V134.025H127.538V131.395Z" fill="black"/>
<path d="M130.205 131.395H127.538V134.025H130.205V131.395Z" fill="black"/>
<path d="M135.538 131.395H132.871V134.025H135.538V131.395Z" fill="black"/>
<path d="M138.204 131.395H135.538V134.025H138.204V131.395Z" fill="black"/>
<path d="M140.871 131.395H138.204V134.025H140.871V131.395Z" fill="black"/>
<path d="M151.537 131.395H148.87V134.025H151.537V131.395Z" fill="black"/>
<path d="M154.204 131.395H151.537V134.025H154.204V131.395Z" fill="black"/>
<path d="M82.2069 134.025H79.5404V136.654H82.2069V134.025Z" fill="black"/>
<path d="M87.54 134.025H84.8734V136.654H87.54V134.025Z" fill="black"/>
<path d="M90.2065 134.025H87.54V136.654H90.2065V134.025Z" fill="black"/>
<path d="M92.8731 134.025H90.2065V136.654H92.8731V134.025Z" fill="black"/>
<path d="M95.5396 134.025H92.8731V136.654H95.5396V134.025Z" fill="black"/>
<path d="M98.2061 134.025H95.5396V136.654H98.2061V134.025Z" fill="black"/>
<path d="M103.539 134.025H100.873V136.654H103.539V134.025Z" fill="black"/>
<path d="M108.872 134.025H106.206V136.654H108.872V134.025Z" fill="black"/>
<path d="M119.538 134.025H116.872V136.654H119.538V134.025Z" fill="black"/>
<path d="M122.205 134.025H119.538V136.654H122.205V134.025Z" fill="black"/>
<path d="M132.871 134.025H130.205V136.654H132.871V134.025Z" fill="black"/>
<path d="M138.204 134.025H135.538V136.654H138.204V134.025Z" fill="black"/>
<path d="M143.537 134.025H140.871V136.654H143.537V134.025Z" fill="black"/>
<path d="M146.204 134.025H143.537V136.654H146.204V134.025Z" fill="black"/>
<path d="M154.204 134.025H151.537V136.654H154.204V134.025Z" fill="black"/>
<path d="M82.2069 136.654H79.5404V139.284H82.2069V136.654Z" fill="black"/>
<path d="M87.54 136.654H84.8734V139.284H87.54V136.654Z" fill="black"/>
<path d="M100.873 136.654H98.2061V139.284H100.873V136.654Z" fill="black"/>
<path d="M103.539 136.654H100.873V139.284H103.539V136.654Z" fill="black"/>
<path d="M108.872 136.654H106.206V139.284H108.872V136.654Z" fill="black"/>
<path d="M114.205 136.654H111.539V139.284H114.205V136.654Z" fill="black"/>
<path d="M116.872 136.654H114.205V139.284H116.872V136.654Z" fill="black"/>
<path d="M122.205 136.654H119.538V139.284H122.205V136.654Z" fill="black"/>
<path d="M124.872 136.654H122.205V139.284H124.872V136.654Z" fill="black"/>
<path d="M130.205 136.654H127.538V139.284H130.205V136.654Z" fill="black"/>
<path d="M135.538 136.654H132.871V139.284H135.538V136.654Z" fill="black"/>
<path d="M138.204 136.654H135.538V139.284H138.204V136.654Z" fill="black"/>
<path d="M143.537 136.654H140.871V139.284H143.537V136.654Z" fill="black"/>
<path d="M146.204 136.654H143.537V139.284H146.204V136.654Z" fill="black"/>
<path d="M151.537 136.654H148.87V139.284H151.537V136.654Z" fill="black"/>
<path d="M79.5404 139.284H76.8738V141.913H79.5404V139.284Z" fill="black"/>
<path d="M84.8734 139.284H82.2069V141.913H84.8734V139.284Z" fill="black"/>
<path d="M90.2065 139.284H87.54V141.913H90.2065V139.284Z" fill="black"/>
<path d="M95.5396 139.284H92.8731V141.913H95.5396V139.284Z" fill="black"/>
<path d="M106.206 139.284H103.539V141.913H106.206V139.284Z" fill="black"/>
<path d="M111.539 139.284H108.872V141.913H111.539V139.284Z" fill="black"/>
<path d="M116.872 139.284H114.205V141.913H116.872V139.284Z" fill="black"/>
<path d="M119.538 139.284H116.872V141.913H119.538V139.284Z" fill="black"/>
<path d="M122.205 139.284H119.538V141.913H122.205V139.284Z" fill="black"/>
<path d="M130.205 139.284H127.538V141.913H130.205V139.284Z" fill="black"/>
<path d="M132.871 139.284H130.205V141.913H132.871V139.284Z" fill="black"/>
<path d="M135.538 139.284H132.871V141.913H135.538V139.284Z" fill="black"/>
<path d="M140.871 139.284H138.204V141.913H140.871V139.284Z" fill="black"/>
<path d="M146.204 139.284H143.537V141.913H146.204V139.284Z" fill="black"/>
<path d="M82.2069 141.913H79.5404V144.543H82.2069V141.913Z" fill="black"/>
<path d="M84.8734 141.913H82.2069V144.543H84.8734V141.913Z" fill="black"/>
<path d="M98.2061 141.913H95.5396V144.543H98.2061V141.913Z" fill="black"/>
<path d="M106.206 141.913H103.539V144.543H106.206V141.913Z" fill="black"/>
<path d="M111.539 141.913H108.872V144.543H111.539V141.913Z" fill="black"/>
<path d="M114.205 141.913H111.539V144.543H114.205V141.913Z" fill="black"/>
<path d="M119.538 141.913H116.872V144.543H119.538V141.913Z" fill="black"/>
<path d="M122.205 141.913H119.538V144.543H122.205V141.913Z" fill="black"/>
<path d="M127.538 141.913H124.872V144.543H127.538V141.913Z" fill="black"/>
<path d="M130.205 141.913H127.538V144.543H130.205V141.913Z" fill="black"/>
<path d="M138.204 141.913H135.538V144.543H138.204V141.913Z" fill="black"/>
<path d="M79.5404 144.543H76.8738V147.172H79.5404V144.543Z" fill="black"/>
<path d="M82.2069 144.543H79.5404V147.172H82.2069V144.543Z" fill="black"/>
<path d="M84.8734 144.543H82.2069V147.172H84.8734V144.543Z" fill="black"/>
<path d="M87.54 144.543H84.8734V147.172H87.54V144.543Z" fill="black"/>
<path d="M90.2065 144.543H87.54V147.172H90.2065V144.543Z" fill="black"/>
<path d="M95.5396 144.543H92.8731V147.172H95.5396V144.543Z" fill="black"/>
<path d="M98.2061 144.543H95.5396V147.172H98.2061V144.543Z" fill="black"/>
<path d="M100.873 144.543H98.2061V147.172H100.873V144.543Z" fill="black"/>
<path d="M114.205 144.543H111.539V147.172H114.205V144.543Z" fill="black"/>
<path d="M119.538 144.543H116.872V147.172H119.538V144.543Z" fill="black"/>
<path d="M124.872 144.543H122.205V147.172H124.872V144.543Z" fill="black"/>
<path d="M127.538 144.543H124.872V147.172H127.538V144.543Z" fill="black"/>
<path d="M130.205 144.543H127.538V147.172H130.205V144.543Z" fill="black"/>
<path d="M132.871 144.543H130.205V147.172H132.871V144.543Z" fill="black"/>
<path d="M140.871 144.543H138.204V147.172H140.871V144.543Z" fill="black"/>
<path d="M143.537 144.543H140.871V147.172H143.537V144.543Z" fill="black"/>
<path d="M79.5404 147.172H76.8738V149.802H79.5404V147.172Z" fill="black"/>
<path d="M92.8731 147.172H90.2065V149.802H92.8731V147.172Z" fill="black"/>
<path d="M100.873 147.172H98.2061V149.802H100.873V147.172Z" fill="black"/>
<path d="M106.206 147.172H103.539V149.802H106.206V147.172Z" fill="black"/>
<path d="M108.872 147.172H106.206V149.802H108.872V147.172Z" fill="black"/>
<path d="M114.205 147.172H111.539V149.802H114.205V147.172Z" fill="black"/>
<path d="M130.205 147.172H127.538V149.802H130.205V147.172Z" fill="black"/>
<path d="M146.204 147.172H143.537V149.802H146.204V147.172Z" fill="black"/>
<path d="M148.87 147.172H146.204V149.802H148.87V147.172Z" fill="black"/>
<path d="M151.537 147.172H148.87V149.802H151.537V147.172Z" fill="black"/>
<path d="M84.8734 149.802H82.2069V152.431H84.8734V149.802Z" fill="black"/>
<path d="M95.5396 149.802H92.8731V152.431H95.5396V149.802Z" fill="black"/>
<path d="M103.539 149.802H100.873V152.431H103.539V149.802Z" fill="black"/>
<path d="M106.206 149.802H103.539V152.431H106.206V149.802Z" fill="black"/>
<path d="M114.205 149.802H111.539V152.431H114.205V149.802Z" fill="black"/>
<path d="M119.538 149.802H116.872V152.431H119.538V149.802Z" fill="black"/>
<path d="M122.205 149.802H119.538V152.431H122.205V149.802Z" fill="black"/>
<path d="M124.872 149.802H122.205V152.431H124.872V149.802Z" fill="black"/>
<path d="M132.871 149.802H130.205V152.431H132.871V149.802Z" fill="black"/>
<path d="M135.538 149.802H132.871V152.431H135.538V149.802Z" fill="black"/>
<path d="M138.204 149.802H135.538V152.431H138.204V149.802Z" fill="black"/>
<path d="M140.871 149.802H138.204V152.431H140.871V149.802Z" fill="black"/>
<path d="M143.537 149.802H140.871V152.431H143.537V149.802Z" fill="black"/>
<path d="M151.537 149.802H148.87V152.431H151.537V149.802Z" fill="black"/>
<path d="M154.204 149.802H151.537V152.431H154.204V149.802Z" fill="black"/>
<path d="M100.873 152.431H98.2061V155.061H100.873V152.431Z" fill="black"/>
<path d="M111.539 152.431H108.872V155.061H111.539V152.431Z" fill="black"/>
<path d="M116.872 152.431H114.205V155.061H116.872V152.431Z" fill="black"/>
<path d="M119.538 152.431H116.872V155.061H119.538V152.431Z" fill="black"/>
<path d="M122.205 152.431H119.538V155.061H122.205V152.431Z" fill="black"/>
<path d="M124.872 152.431H122.205V155.061H124.872V152.431Z" fill="black"/>
<path d="M127.538 152.431H124.872V155.061H127.538V152.431Z" fill="black"/>
<path d="M132.871 152.431H130.205V155.061H132.871V152.431Z" fill="black"/>
<path d="M143.537 152.431H140.871V155.061H143.537V152.431Z" fill="black"/>
<path d="M148.87 152.431H146.204V155.061H148.87V152.431Z" fill="black"/>
<path d="M151.537 152.431H148.87V155.061H151.537V152.431Z" fill="black"/>
<path d="M79.5404 155.061H76.8738V157.69H79.5404V155.061Z" fill="black"/>
<path d="M82.2069 155.061H79.5404V157.69H82.2069V155.061Z" fill="black"/>
<path d="M84.8734 155.061H82.2069V157.69H84.8734V155.061Z" fill="black"/>
<path d="M87.54 155.061H84.8734V157.69H87.54V155.061Z" fill="black"/>
<path d="M90.2065 155.061H87.54V157.69H90.2065V155.061Z" fill="black"/>
<path d="M92.8731 155.061H90.2065V157.69H92.8731V155.061Z" fill="black"/>
<path d="M95.5396 155.061H92.8731V157.69H95.5396V155.061Z" fill="black"/>
<path d="M103.539 155.061H100.873V157.69H103.539V155.061Z" fill="black"/>
<path d="M108.872 155.061H106.206V157.69H108.872V155.061Z" fill="black"/>
<path d="M111.539 155.061H108.872V157.69H111.539V155.061Z" fill="black"/>
<path d="M116.872 155.061H114.205V157.69H116.872V155.061Z" fill="black"/>
<path d="M124.872 155.061H122.205V157.69H124.872V155.061Z" fill="black"/>
<path d="M132.871 155.061H130.205V157.69H132.871V155.061Z" fill="black"/>
<path d="M138.204 155.061H135.538V157.69H138.204V155.061Z" fill="black"/>
<path d="M143.537 155.061H140.871V157.69H143.537V155.061Z" fill="black"/>
<path d="M146.204 155.061H143.537V157.69H146.204V155.061Z" fill="black"/>
<path d="M154.204 155.061H151.537V157.69H154.204V155.061Z" fill="black"/>
<path d="M79.5404 157.69H76.8738V160.32H79.5404V157.69Z" fill="black"/>
<path d="M95.5396 157.69H92.8731V160.32H95.5396V157.69Z" fill="black"/>
<path d="M100.873 157.69H98.2061V160.32H100.873V157.69Z" fill="black"/>
<path d="M106.206 157.69H103.539V160.32H106.206V157.69Z" fill="black"/>
<path d="M108.872 157.69H106.206V160.32H108.872V157.69Z" fill="black"/>
<path d="M114.205 157.69H111.539V160.32H114.205V157.69Z" fill="black"/>
<path d="M124.872 157.69H122.205V160.32H124.872V157.69Z" fill="black"/>
<path d="M127.538 157.69H124.872V160.32H127.538V157.69Z" fill="black"/>
<path d="M130.205 157.69H127.538V160.32H130.205V157.69Z" fill="black"/>
<path d="M132.871 157.69H130.205V160.32H132.871V157.69Z" fill="black"/>
<path d="M143.537 157.69H140.871V160.32H143.537V157.69Z" fill="black"/>
<path d="M146.204 157.69H143.537V160.32H146.204V157.69Z" fill="black"/>
<path d="M151.537 157.69H148.87V160.32H151.537V157.69Z" fill="black"/>
<path d="M79.5404 160.32H76.8738V162.949H79.5404V160.32Z" fill="black"/>
<path d="M84.8734 160.32H82.2069V162.949H84.8734V160.32Z" fill="black"/>
<path d="M87.54 160.32H84.8734V162.949H87.54V160.32Z" fill="black"/>
<path d="M90.2065 160.32H87.54V162.949H90.2065V160.32Z" fill="black"/>
<path d="M95.5396 160.32H92.8731V162.949H95.5396V160.32Z" fill="black"/>
<path d="M106.206 160.32H103.539V162.949H106.206V160.32Z" fill="black"/>
<path d="M108.872 160.32H106.206V162.949H108.872V160.32Z" fill="black"/>
<path d="M116.872 160.32H114.205V162.949H116.872V160.32Z" fill="black"/>
<path d="M119.538 160.32H116.872V162.949H119.538V160.32Z" fill="black"/>
<path d="M127.538 160.32H124.872V162.949H127.538V160.32Z" fill="black"/>
<path d="M130.205 160.32H127.538V162.949H130.205V160.32Z" fill="black"/>
<path d="M132.871 160.32H130.205V162.949H132.871V160.32Z" fill="black"/>
<path d="M135.538 160.32H132.871V162.949H135.538V160.32Z" fill="black"/>
<path d="M138.204 160.32H135.538V162.949H138.204V160.32Z" fill="black"/>
<path d="M140.871 160.32H138.204V162.949H140.871V160.32Z" fill="black"/>
<path d="M143.537 160.32H140.871V162.949H143.537V160.32Z" fill="black"/>
<path d="M146.204 160.32H143.537V162.949H146.204V160.32Z" fill="black"/>
<path d="M148.87 160.32H146.204V162.949H148.87V160.32Z" fill="black"/>
<path d="M151.537 160.32H148.87V162.949H151.537V160.32Z" fill="black"/>
<path d="M154.204 160.32H151.537V162.949H154.204V160.32Z" fill="black"/>
<path d="M79.5404 162.949H76.8738V165.579H79.5404V162.949Z" fill="black"/>
<path d="M84.8734 162.949H82.2069V165.579H84.8734V162.949Z" fill="black"/>
<path d="M87.54 162.949H84.8734V165.579H87.54V162.949Z" fill="black"/>
<path d="M90.2065 162.949H87.54V165.579H90.2065V162.949Z" fill="black"/>
<path d="M95.5396 162.949H92.8731V165.579H95.5396V162.949Z" fill="black"/>
<path d="M103.539 162.949H100.873V165.579H103.539V162.949Z" fill="black"/>
<path d="M106.206 162.949H103.539V165.579H106.206V162.949Z" fill="black"/>
<path d="M108.872 162.949H106.206V165.579H108.872V162.949Z" fill="black"/>
<path d="M111.539 162.949H108.872V165.579H111.539V162.949Z" fill="black"/>
<path d="M119.538 162.949H116.872V165.579H119.538V162.949Z" fill="black"/>
<path d="M122.205 162.949H119.538V165.579H122.205V162.949Z" fill="black"/>
<path d="M127.538 162.949H124.872V165.579H127.538V162.949Z" fill="black"/>
<path d="M143.537 162.949H140.871V165.579H143.537V162.949Z" fill="black"/>
<path d="M146.204 162.949H143.537V165.579H146.204V162.949Z" fill="black"/>
<path d="M79.5404 165.579H76.8738V168.208H79.5404V165.579Z" fill="black"/>
<path d="M84.8734 165.579H82.2069V168.208H84.8734V165.579Z" fill="black"/>
<path d="M87.54 165.579H84.8734V168.208H87.54V165.579Z" fill="black"/>
<path d="M90.2065 165.579H87.54V168.208H90.2065V165.579Z" fill="black"/>
<path d="M95.5396 165.579H92.8731V168.208H95.5396V165.579Z" fill="black"/>
<path d="M106.206 165.579H103.539V168.208H106.206V165.579Z" fill="black"/>
<path d="M108.872 165.579H106.206V168.208H108.872V165.579Z" fill="black"/>
<path d="M114.205 165.579H111.539V168.208H114.205V165.579Z" fill="black"/>
<path d="M116.872 165.579H114.205V168.208H116.872V165.579Z" fill="black"/>
<path d="M132.871 165.579H130.205V168.208H132.871V165.579Z" fill="black"/>
<path d="M135.538 165.579H132.871V168.208H135.538V165.579Z" fill="black"/>
<path d="M140.871 165.579H138.204V168.208H140.871V165.579Z" fill="black"/>
<path d="M79.5404 168.208H76.8738V170.838H79.5404V168.208Z" fill="black"/>
<path d="M95.5396 168.208H92.8731V170.838H95.5396V168.208Z" fill="black"/>
<path d="M106.206 168.208H103.539V170.838H106.206V168.208Z" fill="black"/>
<path d="M108.872 168.208H106.206V170.838H108.872V168.208Z" fill="black"/>
<path d="M111.539 168.208H108.872V170.838H111.539V168.208Z" fill="black"/>
<path d="M116.872 168.208H114.205V170.838H116.872V168.208Z" fill="black"/>
<path d="M119.538 168.208H116.872V170.838H119.538V168.208Z" fill="black"/>
<path d="M122.205 168.208H119.538V170.838H122.205V168.208Z" fill="black"/>
<path d="M127.538 168.208H124.872V170.838H127.538V168.208Z" fill="black"/>
<path d="M130.205 168.208H127.538V170.838H130.205V168.208Z" fill="black"/>
<path d="M135.538 168.208H132.871V170.838H135.538V168.208Z" fill="black"/>
<path d="M138.204 168.208H135.538V170.838H138.204V168.208Z" fill="black"/>
<path d="M140.871 168.208H138.204V170.838H140.871V168.208Z" fill="black"/>
<path d="M143.537 168.208H140.871V170.838H143.537V168.208Z" fill="black"/>
<path d="M151.537 168.208H148.87V170.838H151.537V168.208Z" fill="black"/>
<path d="M154.204 168.208H151.537V170.838H154.204V168.208Z" fill="black"/>
<path d="M79.5404 170.838H76.8738V173.467H79.5404V170.838Z" fill="black"/>
<path d="M82.2069 170.838H79.5404V173.467H82.2069V170.838Z" fill="black"/>
<path d="M84.8734 170.838H82.2069V173.467H84.8734V170.838Z" fill="black"/>
<path d="M87.54 170.838H84.8734V173.467H87.54V170.838Z" fill="black"/>
<path d="M90.2065 170.838H87.54V173.467H90.2065V170.838Z" fill="black"/>
<path d="M92.8731 170.838H90.2065V173.467H92.8731V170.838Z" fill="black"/>
<path d="M95.5396 170.838H92.8731V173.467H95.5396V170.838Z" fill="black"/>
<path d="M103.539 170.838H100.873V173.467H103.539V170.838Z" fill="black"/>
<path d="M111.539 170.838H108.872V173.467H111.539V170.838Z" fill="black"/>
<path d="M116.872 170.838H114.205V173.467H116.872V170.838Z" fill="black"/>
<path d="M124.872 170.838H122.205V173.467H124.872V170.838Z" fill="black"/>
<path d="M127.538 170.838H124.872V173.467H127.538V170.838Z" fill="black"/>
<path d="M130.205 170.838H127.538V173.467H130.205V170.838Z" fill="black"/>
<path d="M135.538 170.838H132.871V173.467H135.538V170.838Z" fill="black"/>
<path d="M146.204 170.838H143.537V173.467H146.204V170.838Z" fill="black"/>
<path d="M148.87 170.838H146.204V173.467H148.87V170.838Z" fill="black"/>
<path d="M27.4688 19.3961C27.4688 10.0647 35.0334 2.5 44.3649 2.5H187.74C197.072 2.5 204.636 10.0647 204.636 19.3961V328.901H27.4688V19.3961Z" stroke="white" stroke-width="5"/>
<rect x="44.5002" y="25.5" width="143" height="209" rx="5.81263" stroke="white" stroke-width="5"/>
<g clip-path="url(#clip0_1_278)">
<path fill-rule="evenodd" clip-rule="evenodd" d="M93.0901 268.609H137.679V266.733H93.0901V268.609Z" fill="#E22C38"/>
<path fill-rule="evenodd" clip-rule="evenodd" d="M127.25 272.025H122.321V289.563H119.963V277.664C119.963 276.667 119.906 276.037 119.721 275.421C119.364 274.191 118.534 272.875 117.492 272.347C116.863 272.025 116.134 271.893 115.377 271.893C114.492 271.893 113.663 272.084 112.963 272.523C112.034 273.095 111.32 274.337 110.992 275.539C110.835 276.096 110.792 276.711 110.792 277.664V289.563H108.435V272.025H103.505V289.563H101.177L101.148 272.025H96.3762V289.563H94.0334V272.025H93.0901V270.15H137.678V272.025H136.736V289.563H134.393V272.025H129.592V289.563H127.25V272.025Z" fill="#E22C38"/>
<path fill-rule="evenodd" clip-rule="evenodd" d="M93.7563 263.825L95.1278 261.949L96.4853 263.825L95.1278 265.701L93.7563 263.825Z" fill="#E22C38"/>
<path fill-rule="evenodd" clip-rule="evenodd" d="M99.9713 297.189C100.771 297.541 101.457 298.391 101.457 299.622C101.457 301.204 100.614 302.215 99.542 302.523C98.8847 302.728 98.1996 302.728 97.5714 302.728H93.7559V292.016H97.7995C98.2996 292.016 98.857 292.031 99.4141 292.177C100.371 292.441 101.257 293.262 101.257 294.771C101.257 296.163 100.485 296.837 99.9713 297.116V297.189ZM97.8703 296.661C98.2427 296.661 98.5847 296.617 98.8707 296.442C99.2849 296.207 99.5711 295.709 99.5711 294.962C99.5711 294.229 99.228 293.745 98.7277 293.57C98.4859 293.467 98.1857 293.437 97.7995 293.437H95.4136V296.661H97.8703ZM99.7281 299.622C99.7281 298.845 99.3571 298.405 98.9138 298.215C98.6278 298.097 98.2996 298.068 98.0136 298.068H95.4136V301.321H97.9856C98.2996 301.321 98.5998 301.292 98.843 301.204C99.4001 300.984 99.7281 300.471 99.7281 299.622Z" fill="#E22C38"/>
<path fill-rule="evenodd" clip-rule="evenodd" d="M101.954 263.751C101.597 263.619 101.34 263.282 101.34 262.873C101.34 262.359 101.74 261.949 102.254 261.949C102.754 261.949 103.154 262.359 103.154 262.873C103.154 263.282 102.911 263.619 102.554 263.737L103.425 265.554H101.082L101.954 263.751Z" fill="#E22C38"/>
<path fill-rule="evenodd" clip-rule="evenodd" d="M114.684 301.16L113.57 302.728H103.083L108.769 292.016H112.255V301.204L114.684 301.16ZM110.627 301.277V293.32H109.541L105.412 301.277H110.627Z" fill="#E22C38"/>
<path fill-rule="evenodd" clip-rule="evenodd" d="M108.412 265.42H122.298V263.544H108.412V265.42Z" fill="#E22C38"/>
<path fill-rule="evenodd" clip-rule="evenodd" d="M112.63 262.003H118.26V260.128H112.63V262.003Z" fill="#E22C38"/>
<path fill-rule="evenodd" clip-rule="evenodd" d="M113.297 255.155H117.441V253.294H113.297V255.155Z" fill="#E22C38"/>
<path fill-rule="evenodd" clip-rule="evenodd" d="M113.742 256.71H116.799L115.27 258.82L113.742 256.71Z" fill="#E22C38"/>
<path fill-rule="evenodd" clip-rule="evenodd" d="M125.675 292.016V302.728H124.018V297.76H118.718V302.728H117.074V292.016H118.718V296.295H124.018V292.016H125.675Z" fill="#E22C38"/>
<path fill-rule="evenodd" clip-rule="evenodd" d="M128.162 263.737C127.805 263.619 127.562 263.282 127.562 262.873C127.562 262.359 127.962 261.949 128.462 261.949C128.976 261.949 129.376 262.359 129.376 262.873C129.376 263.282 129.119 263.619 128.762 263.751L129.634 265.554H127.291L128.162 263.737Z" fill="#E22C38"/>
<path fill-rule="evenodd" clip-rule="evenodd" d="M132.927 298.361L130.056 302.728H128.398L132.141 297.203L128.57 292.016H130.556L133.156 295.797L135.627 292.016H137.227L133.927 296.94L137.899 302.728H135.927L132.927 298.361Z" fill="#E22C38"/>
<path fill-rule="evenodd" clip-rule="evenodd" d="M134.172 263.825L135.529 261.949L136.901 263.825L135.529 265.7L134.172 263.825Z" fill="#E22C38"/>
</g>
<path d="M27.4656 14.2913L10.7082 63.5153C5.81382 77.8923 3.31666 92.9763 3.31666 108.164V332.39" stroke="white" stroke-width="5"/>
<defs>
<clipPath id="clip0_1_278">
<rect width="46" height="50" fill="white" transform="translate(93.0002 253)"/>
</clipPath>
</defs>
</svg>
