
<svg width="208" height="321" viewBox="0 0 208 321" fill="none" xmlns="http://www.w3.org/2000/svg">
  <rect x="66.1012" y="86.5881" width="98.8745" height="97.5013" rx="6.67152" fill="white"/>

  <path d="M27.4688 19.3961C27.4688 10.0647 35.0334 2.5 44.3649 2.5H187.74C197.072 2.5 204.636 10.0647 204.636 19.3961V328.901H27.4688V19.3961Z" stroke="white" stroke-width="5"/>
  <rect x="44.5002" y="25.5" width="143" height="209" rx="5.81263" stroke="white" stroke-width="5"/>
  <g clip-path="url(#clip0_1_278)">
  <path fill-rule="evenodd" clip-rule="evenodd" d="M93.0901 268.609H137.679V266.733H93.0901V268.609Z" fill="#E22C38"/>
  <path fill-rule="evenodd" clip-rule="evenodd" d="M127.25 272.025H122.321V289.563H119.963V277.664C119.963 276.667 119.906 276.037 119.721 275.421C119.364 274.191 118.534 272.875 117.492 272.347C116.863 272.025 116.134 271.893 115.377 271.893C114.492 271.893 113.663 272.084 112.963 272.523C112.034 273.095 111.32 274.337 110.992 275.539C110.835 276.096 110.792 276.711 110.792 277.664V289.563H108.435V272.025H103.505V289.563H101.177L101.148 272.025H96.3762V289.563H94.0334V272.025H93.0901V270.15H137.678V272.025H136.736V289.563H134.393V272.025H129.592V289.563H127.25V272.025Z" fill="#E22C38"/>
  <path fill-rule="evenodd" clip-rule="evenodd" d="M93.7563 263.825L95.1278 261.949L96.4853 263.825L95.1278 265.701L93.7563 263.825Z" fill="#E22C38"/>
  <path fill-rule="evenodd" clip-rule="evenodd" d="M99.9713 297.189C100.771 297.541 101.457 298.391 101.457 299.622C101.457 301.204 100.614 302.215 99.542 302.523C98.8847 302.728 98.1996 302.728 97.5714 302.728H93.7559V292.016H97.7995C98.2996 292.016 98.857 292.031 99.4141 292.177C100.371 292.441 101.257 293.262 101.257 294.771C101.257 296.163 100.485 296.837 99.9713 297.116V297.189ZM97.8703 296.661C98.2427 296.661 98.5847 296.617 98.8707 296.442C99.2849 296.207 99.5711 295.709 99.5711 294.962C99.5711 294.229 99.228 293.745 98.7277 293.57C98.4859 293.467 98.1857 293.437 97.7995 293.437H95.4136V296.661H97.8703ZM99.7281 299.622C99.7281 298.845 99.3571 298.405 98.9138 298.215C98.6278 298.097 98.2996 298.068 98.0136 298.068H95.4136V301.321H97.9856C98.2996 301.321 98.5998 301.292 98.843 301.204C99.4001 300.984 99.7281 300.471 99.7281 299.622Z" fill="#E22C38"/>
  <path fill-rule="evenodd" clip-rule="evenodd" d="M101.954 263.751C101.597 263.619 101.34 263.282 101.34 262.873C101.34 262.359 101.74 261.949 102.254 261.949C102.754 261.949 103.154 262.359 103.154 262.873C103.154 263.282 102.911 263.619 102.554 263.737L103.425 265.554H101.082L101.954 263.751Z" fill="#E22C38"/>
  <path fill-rule="evenodd" clip-rule="evenodd" d="M114.684 301.16L113.57 302.728H103.083L108.769 292.016H112.255V301.204L114.684 301.16ZM110.627 301.277V293.32H109.541L105.412 301.277H110.627Z" fill="#E22C38"/>
  <path fill-rule="evenodd" clip-rule="evenodd" d="M108.412 265.42H122.298V263.544H108.412V265.42Z" fill="#E22C38"/>
  <path fill-rule="evenodd" clip-rule="evenodd" d="M112.63 262.003H118.26V260.128H112.63V262.003Z" fill="#E22C38"/>
  <path fill-rule="evenodd" clip-rule="evenodd" d="M113.297 255.155H117.441V253.294H113.297V255.155Z" fill="#E22C38"/>
  <path fill-rule="evenodd" clip-rule="evenodd" d="M113.742 256.71H116.799L115.27 258.82L113.742 256.71Z" fill="#E22C38"/>
  <path fill-rule="evenodd" clip-rule="evenodd" d="M125.675 292.016V302.728H124.018V297.76H118.718V302.728H117.074V292.016H118.718V296.295H124.018V292.016H125.675Z" fill="#E22C38"/>
  <path fill-rule="evenodd" clip-rule="evenodd" d="M128.162 263.737C127.805 263.619 127.562 263.282 127.562 262.873C127.562 262.359 127.962 261.949 128.462 261.949C128.976 261.949 129.376 262.359 129.376 262.873C129.376 263.282 129.119 263.619 128.762 263.751L129.634 265.554H127.291L128.162 263.737Z" fill="#E22C38"/>
  <path fill-rule="evenodd" clip-rule="evenodd" d="M132.927 298.361L130.056 302.728H128.398L132.141 297.203L128.57 292.016H130.556L133.156 295.797L135.627 292.016H137.227L133.927 296.94L137.899 302.728H135.927L132.927 298.361Z" fill="#E22C38"/>
  <path fill-rule="evenodd" clip-rule="evenodd" d="M134.172 263.825L135.529 261.949L136.901 263.825L135.529 265.7L134.172 263.825Z" fill="#E22C38"/>
  </g>
  <path d="M27.4656 14.2913L10.7082 63.5153C5.81382 77.8923 3.31666 92.9763 3.31666 108.164V332.39" stroke="white" stroke-width="5"/>
  <defs>
  <clipPath id="clip0_1_278">
  <rect width="46" height="50" fill="white" transform="translate(93.0002 253)"/>
  </clipPath>
  </defs>
  </svg>
