<svg width="1440" height="357" viewBox="0 0 1440 357" fill="none" xmlns="http://www.w3.org/2000/svg">
<path d="M-61.6371 196.071C327.863 543.892 383.942 131.711 448.362 182.392C481.903 208.779 381.952 356.429 464.863 323.392C547.773 290.355 913.604 41.8414 994.863 22.8928C1106.36 -3.10765 954.502 184.324 954.502 230.392C954.502 300.892 1194.86 211.892 1556.24 90.5993" stroke="#ECF6FF" stroke-width="40"/>
<path d="M-61.6371 196.071C327.863 543.892 383.942 131.711 448.362 182.392C481.903 208.779 381.952 356.429 464.863 323.392C547.773 290.355 913.604 41.8414 994.863 22.8928C1106.36 -3.10765 954.502 184.324 954.502 230.392C954.502 300.892 1194.86 211.892 1556.24 90.5993" stroke="white" stroke-opacity="0.2" stroke-width="40"/>
</svg>
