<svg width="24" height="24" viewBox="0 0 24 24" fill="none" xmlns="http://www.w3.org/2000/svg">
<path d="M0 11.52C0 6.08933 0 3.374 1.68667 1.68667C3.37467 0 6.09 0 11.52 0H12.48C17.9107 0 20.626 0 22.3133 1.68667C24 3.37467 24 6.09 24 11.52V12.48C24 17.9107 24 20.626 22.3133 22.3133C20.6253 24 17.91 24 12.48 24H11.52C6.08933 24 3.374 24 1.68667 22.3133C0 20.6253 0 17.91 0 12.48V11.52Z" fill="#6C93B3"/>
<path d="M12.7698 17.2898C7.29981 17.2898 4.1798 13.5398 4.0498 7.2998H6.78981C6.87981 11.8798 8.89981 13.8198 10.4998 14.2198V7.2998H13.0798V11.2498C14.6598 11.0798 16.3198 9.2798 16.8798 7.2998H19.4598C19.0298 9.7398 17.2298 11.5398 15.9498 12.2798C17.2298 12.8798 19.2798 14.4498 20.0598 17.2898H17.2198C16.6098 15.3898 15.0898 13.9198 13.0798 13.7198V17.2898H12.7698Z" fill="white"/>
</svg>
